# xmcd
#
# Track frame offsets: 
#        150
#        20392
#        36949
#        53236
#        72510
#        90573
#        110693
#        126860
#        141944
#        157100
#        174607
#
# Disc length: 2492 seconds
#
# Revision: 2
# Processed by: cddbd v1.5.2PL0 Copyright (c) Steve Scherf et al.
# Submitted via: ExactAudioCopyFreeDBPlugin 1.0
#
DISCID=9e09ba0b
DTITLE=Yuna - Rouge
DYEAR=2019
DGENRE=Pop
TTITLE0=Castaway (feat. Tyler, The Creator)
TTITLE1=Blank Marquee (feat. G-Eazy)
TTITLE2=(Not) The Love of My Life
TTITLE3=Teenage Heartbreak (feat. Miyavi)
TTITLE4=Pink Youth (feat. Little Simz)
TTITLE5=Forget About You
TTITLE6=Likes (feat. Kyle)
TTITLE7=Amy (feat. Masego)
TTITLE8=Does She (feat. Jay Park)
TTITLE9=Forevermore
TTITLE10=Tiada Akhir
EXTD=YEAR: 2019
EXTT0=
EXTT1=
EXTT2=
EXTT3=
EXTT4=
EXTT5=
EXTT6=
EXTT7=
EXTT8=
EXTT9=
EXTT10=
PLAYORDER=
